<?xml version="1.0" standalone="no"?>
<!DOCTYPE svg PUBLIC "-//W3C//DTD SVG 20010904//EN"
 "http://www.w3.org/TR/2001/REC-SVG-20010904/DTD/svg10.dtd">
<svg version="1.0" xmlns="http://www.w3.org/2000/svg"
 width="300.000000pt" height="300.000000pt" viewBox="0 0 300.000000 300.000000"
 preserveAspectRatio="xMidYMid meet">
<metadata>
Created by potrace 1.10, written by Peter Selinger 2001-2011
</metadata>
<g transform="translate(0.000000,300.000000) scale(0.100000,-0.100000)"
fill="#000000" stroke="none">
<path d="M1384 2126 c-100 -24 -198 -93 -225 -158 -10 -25 -15 -28 -44 -22
-44 8 -75 -3 -75 -26 0 -25 36 -43 81 -42 l38 2 -35 -51 c-19 -28 -34 -62 -34
-76 0 -26 55 -87 70 -78 4 2 12 -18 17 -46 12 -59 6 -65 -72 -70 l-49 -4 -9
45 c-11 56 6 166 34 222 23 45 19 63 -6 24 -28 -43 -45 -116 -45 -196 0 -98
10 -114 72 -109 l46 4 20 -47 c11 -27 25 -48 31 -48 6 0 2 15 -9 33 -32 52
-27 63 33 71 82 9 189 7 182 -4 -3 -5 -25 -10 -47 -10 -23 0 -38 -3 -34 -7 4
-4 23 -6 42 -4 28 2 34 -1 34 -17 0 -11 2 -27 5 -34 4 -9 -4 -19 -17 -26 -23
-11 -23 -11 5 -11 19 -1 26 3 21 11 -5 8 -2 9 10 5 10 -4 27 -7 39 -8 35 -2
-50 -25 -118 -33 l-60 -7 28 27 c31 29 31 47 -1 52 -29 4 -103 -36 -109 -59
-6 -23 -11 -23 -51 -3 -41 20 -137 16 -138 -6 0 -8 -6 -28 -12 -44 -16 -36 -4
-77 26 -91 29 -13 28 -29 -4 -58 -16 -15 -24 -31 -21 -43 4 -16 5 -16 6 3 1
25 21 42 21 19 0 -9 -9 -25 -19 -35 -16 -16 -29 -18 -82 -14 -54 4 -68 2 -88
-14 -21 -17 -25 -30 -28 -96 -4 -72 -2 -78 25 -108 25 -28 37 -33 88 -37 50
-3 64 0 94 20 19 13 40 37 45 54 l10 31 28 -28 c16 -16 38 -29 50 -30 21 0 21
-1 -3 -10 -13 -6 -34 -8 -47 -4 -25 6 -41 -10 -18 -19 13 -4 52 5 120 29 20 7
20 6 1 -9 -19 -16 -19 -16 5 -17 l24 -1 -25 -8 c-14 -4 -50 -9 -80 -9 -80 -2
-134 -12 -118 -22 7 -5 139 -8 293 -8 285 2 314 15 40 19 -77 1 -132 4 -122 7
14 4 17 11 13 29 l-6 24 127 0 c115 0 129 -2 149 -21 57 -54 180 -41 231 25
11 13 33 26 49 28 19 2 30 9 32 23 2 11 11 28 19 37 10 11 13 26 9 42 -5 20 2
31 43 65 30 25 59 41 75 41 15 0 29 7 32 15 4 8 12 15 19 15 14 0 25 31 25 70
0 14 7 46 17 72 27 76 22 78 -177 78 -144 0 -169 -2 -174 -16 -9 -24 -7 -41 7
-56 8 -7 16 -42 19 -76 6 -58 5 -62 -12 -57 -29 9 -72 -5 -66 -22 8 -19 -126
-80 -216 -98 -18 -3 -28 -12 -28 -23 0 -15 -9 -18 -57 -17 -54 0 -57 1 -64 28
-8 31 4 77 21 77 5 0 26 16 46 35 40 39 79 46 87 15 3 -13 -3 -26 -21 -40 -16
-12 -19 -17 -7 -11 32 16 61 40 48 41 -22 0 -14 20 8 20 13 0 18 -4 13 -12 -5
-8 -3 -8 7 -2 8 5 48 9 89 9 l75 0 -2 28 c-1 16 -16 59 -33 95 -17 37 -32 69
-32 72 -1 3 23 8 52 13 174 25 296 207 259 385 -31 152 -142 267 -291 302 -58
13 -161 11 -224 -4z m257 -26 c81 -25 143 -73 133 -104 -4 -11 -11 -24 -16
-27 -13 -8 -1 -46 27 -84 12 -16 25 -42 29 -56 7 -31 53 -49 67 -27 6 8 9 -4
9 -32 0 -60 -29 -106 -83 -130 -23 -11 -36 -20 -29 -20 7 0 22 5 34 11 27 15
31 8 14 -27 -22 -42 -74 -88 -126 -108 -25 -10 -57 -24 -72 -32 -36 -19 -66
-18 -72 4 -3 9 -17 78 -31 152 -34 177 -52 236 -74 237 -10 1 -77 18 -150 37
-72 20 -134 36 -136 36 -3 0 -5 5 -5 10 0 6 7 10 15 10 9 0 12 6 9 15 -4 9 0
15 10 15 8 0 20 10 27 21 9 17 8 20 -3 14 -7 -3 -2 3 11 14 12 12 28 18 34 14
6 -3 7 -1 3 5 -8 13 21 30 94 53 76 25 200 24 281 -1z m183 -161 c25 -30 36
-79 17 -79 -11 0 -71 86 -71 101 0 19 29 8 54 -22z m-589 -40 c55 -15 93 -28
85 -28 -31 -2 -170 24 -170 31 0 4 -10 8 -22 8 -41 0 -71 12 -56 21 14 9 18 8
163 -32z m94 -43 c67 -8 127 -18 131 -23 5 -4 12 -21 15 -38 4 -16 3 -25 -2
-20 -21 27 -57 1 -49 -36 7 -37 -6 -37 -37 1 -14 17 -29 30 -33 30 -5 0 -3 -5
4 -12 23 -23 14 -39 -20 -33 -17 3 -36 9 -42 13 -6 3 -18 7 -26 9 -7 1 -22 12
-33 25 l-18 23 6 -25 c12 -44 -14 -8 -29 41 -11 34 -14 38 -15 19 -1 -14 -8
-34 -16 -44 -8 -11 -15 -29 -16 -40 -1 -15 -4 -13 -11 10 -8 25 -6 39 11 72
24 48 14 46 180 28z m537 -17 c3 -6 1 -16 -5 -22 -9 -9 -14 -8 -21 3 -9 15 -4
30 10 30 5 0 12 -5 16 -11z m-663 -135 c-16 -12 -14 -12 14 -2 26 10 32 16 27
32 -6 17 -2 16 25 -7 37 -31 31 -28 93 -33 26 -2 56 -8 67 -14 19 -10 40 -75
28 -87 -21 -21 -205 -12 -212 10 -2 7 -6 24 -9 40 -4 15 -10 27 -15 27 -6 0
-6 -13 0 -32 12 -43 12 -48 -5 -48 -20 0 -26 23 -32 115 l-6 80 22 -34 c20
-32 20 -34 3 -47z m268 39 c10 -26 2 -51 -11 -36 -4 4 -11 23 -15 42 -8 39 10
35 26 -6z m22 -50 c12 -21 17 -103 7 -103 -6 0 -9 4 -5 10 6 9 -13 50 -29 61
-5 4 -6 14 -3 23 7 17 23 21 30 9z m-214 -117 c-11 -9 -100 -15 -94 -6 3 6 27
10 52 10 26 0 44 -2 42 -4z m241 -10 c0 -8 -4 -18 -10 -21 -15 -9 -12 -25 4
-19 9 3 15 -4 19 -23 3 -15 5 -29 4 -29 -1 -1 -22 -4 -47 -8 -54 -7 -68 0 -76
41 -6 29 -3 33 32 52 46 24 74 26 74 7z m30 -127 c0 -5 -15 -9 -32 -9 l-33 1
25 13 c25 14 40 13 40 -5z m30 -28 c13 -26 13 -34 -2 -25 -7 4 -5 -2 5 -13 20
-23 22 -39 5 -47 -7 -4 -3 -4 9 -2 16 3 24 -2 29 -17 4 -12 2 -23 -5 -25 -17
-6 -13 -22 6 -22 9 0 13 -3 10 -6 -3 -4 -41 -6 -84 -4 -83 2 -181 16 -148 20
11 2 0 6 -25 9 l-45 6 30 17 30 18 -45 -7 c-69 -11 -113 -9 -117 5 -3 6 3 12
12 12 8 0 57 16 108 36 75 30 164 57 209 63 4 1 12 -8 18 -18z m394 -4 c22
-21 43 -23 26 -2 -10 12 -9 15 4 15 9 0 20 -8 23 -17 4 -10 11 -21 17 -25 6
-4 -62 -8 -151 -8 -147 0 -199 8 -157 24 8 3 13 10 9 15 -6 11 71 19 156 17
38 -2 62 -8 73 -19z m-879 -24 c9 8 10 16 3 25 -8 8 -6 12 3 12 24 0 59 -12
59 -20 0 -4 -10 -12 -22 -18 -13 -6 -17 -11 -10 -11 7 -1 22 4 33 9 21 12 22
10 13 -14 -3 -9 -14 -16 -23 -16 -9 0 -22 -5 -29 -12 -9 -9 -12 -9 -12 1 0 6
-11 0 -24 -16 l-24 -28 -8 40 c-7 37 -8 38 -15 15 -10 -36 -10 -59 1 -35 6 15
9 16 9 4 1 -23 -10 -31 -26 -18 -18 16 -16 60 4 89 l17 25 13 -40 13 -40 -5
45 c-4 40 -3 42 6 18 8 -22 13 -25 24 -15z m324 23 c-6 -6 -212 -77 -215 -74
-1 2 -4 18 -6 37 l-3 35 102 1 c56 1 106 4 109 8 4 4 10 5 12 2 3 -3 3 -7 1
-9z m421 -56 c-24 -5 1 -8 78 -9 105 -1 112 -2 112 -21 0 -25 -17 -26 -23 -2
-3 11 -5 7 -6 -10 0 -15 4 -30 9 -33 6 -3 10 -11 10 -17 0 -6 -3 -8 -7 -5 -3
4 -12 2 -20 -5 -18 -15 -30 -1 -16 20 8 14 6 23 -7 40 -21 26 -36 28 -44 7 -4
-10 1 -15 14 -15 13 0 20 -7 20 -20 0 -18 -7 -20 -65 -20 -63 0 -65 1 -65 26
0 20 4 24 19 19 11 -3 23 0 27 6 4 8 3 9 -4 5 -7 -4 -12 -2 -12 3 0 19 -25 12
-40 -11 -7 -13 -13 -33 -11 -45 2 -20 -2 -23 -28 -23 -24 0 -31 4 -31 19 0 10
-3 33 -6 50 -6 29 -4 31 22 32 l29 1 -30 8 c-22 6 -12 8 40 8 55 -1 63 -2 35
-8z m-660 -30 c11 -11 20 -27 20 -35 0 -22 -37 -18 -43 5 -6 21 -14 24 -35 12
-17 -12 -4 -42 18 -42 17 0 18 -2 2 -32 -9 -19 -16 -57 -17 -90 0 -33 -3 -52
-8 -45 -4 7 -5 -7 -2 -30 4 -23 4 -52 0 -63 l-7 -22 -15 21 c-8 12 -19 21 -25
21 -5 0 -35 7 -65 16 -54 16 -54 16 -36 37 18 22 18 22 -3 4 -16 -14 -31 -16
-62 -11 -23 4 -49 12 -57 18 -14 10 -14 13 0 34 16 22 55 31 55 11 0 -5 -4 -8
-9 -5 -5 3 -14 -1 -21 -9 -11 -13 -8 -13 19 -4 17 6 28 15 25 20 -3 5 8 9 24
9 22 0 31 -6 35 -21 4 -14 11 -20 21 -16 9 4 24 -8 41 -35 15 -22 29 -37 32
-34 3 3 14 -5 25 -17 16 -18 16 -16 -2 11 -12 18 -26 29 -32 25 -7 -4 -9 0 -5
10 4 10 2 16 -5 14 -6 -1 -13 4 -16 12 -3 9 0 11 9 6 8 -5 11 -4 6 1 -5 5 -14
9 -19 9 -6 0 -13 6 -16 14 -3 9 0 11 8 6 9 -6 11 -4 6 4 -5 7 -1 20 6 29 8 9
23 37 33 62 9 25 20 51 23 59 4 10 1 12 -9 6 -12 -8 -12 -6 0 8 7 9 17 15 21
12 4 -2 15 4 25 15 23 25 30 25 55 0z m200 -55 c0 -2 -27 -23 -60 -45 l-60
-41 0 -59 c0 -46 4 -61 18 -69 30 -17 0 -32 -59 -29 l-54 3 2 85 c1 47 5 99 8
115 5 28 8 31 38 28 26 -3 71 1 160 16 4 0 7 -1 7 -4z m518 -45 c60 0 91 -4
87 -10 -3 -6 -50 -10 -104 -10 -80 0 -101 3 -112 17 -13 15 -11 16 11 10 14
-4 67 -7 118 -7z m-154 -29 c3 -5 -12 -9 -34 -9 -23 -1 -38 3 -35 9 8 12 62
12 69 0z m96 -40 c-25 -22 -47 -38 -50 -36 -4 2 -4 20 -2 39 4 36 5 36 51 36
l46 -1 -45 -38z m35 -1 c-21 -22 -44 -40 -50 -40 -9 1 74 80 85 80 2 0 -14
-18 -35 -40z m-146 -4 c0 -5 12 -17 27 -27 33 -21 53 -55 54 -88 0 -19 -3 -21
-14 -12 -11 9 -15 7 -18 -7 -5 -17 -21 -19 -179 -25 -233 -9 -479 -9 -479 1 0
4 48 6 107 4 105 -3 237 7 199 16 -14 3 -17 10 -12 34 3 17 6 37 6 44 0 17 66
19 76 2 4 -6 3 -8 -3 -5 -16 10 -34 -18 -26 -38 4 -13 3 -16 -5 -11 -8 5 -12
0 -12 -13 0 -32 15 -25 29 15 9 24 27 45 59 65 53 33 47 40 -7 7 -26 -15 -31
-16 -20 -4 27 29 110 56 167 53 29 -1 52 -6 51 -11z m105 -63 c11 -27 -6 -37
-20 -12 -7 13 -13 27 -14 31 0 13 28 -3 34 -19z m-666 -70 c15 -12 14 -13 -8
-11 -14 2 -25 9 -24 16 1 6 2 27 4 45 l3 32 4 -34 c3 -19 12 -41 21 -48z
m-234 31 c13 -5 14 -10 5 -20 -19 -23 0 -37 27 -20 13 9 33 16 44 16 17 0 19
-3 11 -19 -6 -10 -24 -24 -41 -31 -25 -10 -34 -10 -55 4 -30 20 -40 39 -31 61
6 16 16 18 40 9z m466 -14 c0 -18 -7 -20 -56 -20 -46 0 -54 2 -45 13 6 8 8 17
4 20 -3 4 17 7 45 7 45 0 52 -3 52 -20z m-530 -34 c0 -7 9 -21 20 -31 26 -23
25 -35 -1 -28 -20 6 -39 39 -39 69 0 8 5 12 10 9 6 -3 10 -12 10 -19z m845
-26 c-4 -6 -107 -9 -283 -8 l-277 2 215 6 c118 3 246 7 283 8 43 1 66 -2 62
-8z m-70 -40 c-26 -11 -65 -12 -65 -2 0 4 19 9 43 10 32 1 37 -1 22 -8z"/>
<path d="M1521 1780 c29 -60 131 -160 162 -160 6 0 -10 14 -35 30 -26 17 -60
50 -78 73 -66 89 -63 85 -49 57z"/>
<path d="M1605 1050 c-4 -6 16 -10 52 -10 41 0 54 3 43 10 -20 13 -87 13 -95
0z"/>
<path d="M1590 1020 c0 -6 29 -10 66 -10 41 0 63 4 59 10 -3 6 -33 10 -66 10
-33 0 -59 -4 -59 -10z"/>
<path d="M2026 1090 c-39 -47 -31 -60 9 -14 30 34 34 36 35 18 0 -12 -7 -24
-15 -28 -8 -3 -15 -10 -15 -16 0 -6 7 -6 20 2 26 17 38 2 14 -18 -18 -14 -18
-15 -1 -10 12 4 17 2 15 -6 -3 -7 -14 -14 -26 -16 -12 -2 -22 -8 -22 -13 0
-13 12 -11 38 7 22 15 32 74 12 74 -5 0 -9 10 -7 22 3 34 -27 33 -57 -2z"/>
<path d="M1930 1005 c-19 -13 -61 -33 -92 -45 -32 -13 -58 -26 -58 -31 0 -11
36 3 128 48 39 19 72 39 72 44 0 14 -12 10 -50 -16z"/>
<path d="M1885 950 c-22 -10 -34 -19 -27 -19 16 -1 82 26 82 33 0 9 -12 6 -55
-14z"/>
<path d="M1836 918 c6 -9 -37 -21 -57 -17 -20 4 -99 -12 -99 -19 0 -8 219 3
257 12 43 11 24 24 -41 28 -35 1 -62 0 -60 -4z"/>
<path d="M766 911 c-8 -12 18 -21 56 -21 26 0 29 2 18 15 -14 16 -65 21 -74 6z"/>
<path d="M1385 133 c-11 -3 -25 -12 -31 -21 -6 -8 -16 -12 -22 -8 -8 5 -12 0
-12 -13 0 -21 14 -28 24 -12 3 5 15 7 25 4 13 -3 21 2 26 16 3 12 11 21 16 21
5 0 9 5 9 10 0 11 -3 11 -35 3z"/>
<path d="M1550 110 c-7 -13 -15 -18 -19 -13 -5 8 -83 10 -123 4 -14 -2 -8 -18
7 -18 8 0 12 4 9 9 -3 4 0 8 5 8 6 0 11 -4 11 -9 0 -10 50 -9 68 2 7 5 12 4
12 -2 0 -21 38 -11 43 11 8 30 1 34 -13 8z"/>
<path d="M1574 99 c-3 -6 -4 -13 -1 -16 7 -7 47 6 47 16 0 11 -39 11 -46 0z"/>
<path d="M1630 94 c0 -15 33 -29 38 -15 5 16 -1 25 -20 26 -10 1 -18 -4 -18
-11z"/>
</g>
</svg>
